<svg id="svg" version="1.1" width="400" height="297.3390557939914" viewBox="0 0 400 297.3390557939914" xmlns="http://www.w3.org/2000/svg" xmlns:xlink="http://www.w3.org/1999/xlink" ><g id="svgg"><path id="path0" d="M1.487 114.201 L 1.487 228.401 200.000 228.401 L 398.513 228.401 398.513 224.089 L 398.513 219.777 377.546 219.777 L 356.580 219.777 356.580 187.063 L 356.580 154.349 339.182 154.349 L 321.784 154.349 321.784 187.063 L 321.784 219.777 309.591 219.777 L 297.398 219.777 297.398 115.242 L 297.398 10.706 280.446 10.706 L 263.494 10.706 263.494 115.242 L 263.494 219.777 251.301 219.777 L 239.108 219.777 239.108 166.989 L 239.108 114.201 222.454 114.201 L 205.799 114.201 205.799 166.989 L 205.799 219.777 193.606 219.777 L 181.413 219.777 181.413 154.498 L 181.413 89.219 164.164 89.219 L 146.914 89.219 146.914 154.498 L 146.914 219.777 134.721 219.777 L 122.528 219.777 122.526 163.494 C 122.524 132.539,122.491 94.431,122.451 78.810 L 122.379 50.409 105.428 50.409 L 88.476 50.409 88.402 82.082 C 88.362 99.502,88.328 137.610,88.328 166.766 L 88.327 219.777 76.134 219.777 L 63.941 219.777 63.941 176.059 L 63.941 132.342 47.732 132.342 L 31.524 132.342 31.524 176.059 L 31.524 219.777 20.372 219.777 L 9.219 219.777 9.219 109.888 L 9.219 0.000 5.353 0.000 L 1.487 0.000 1.487 114.201 M314.944 245.948 L 314.944 250.409 320.149 250.409 L 325.353 250.409 325.353 245.948 L 325.353 241.487 320.149 241.487 L 314.944 241.487 314.944 245.948 M112.268 245.651 C 112.167 245.814,111.657 245.954,111.135 245.961 C 109.344 245.986,107.591 246.870,106.146 248.476 C 104.662 250.126,104.077 250.909,103.765 251.663 C 103.577 252.118,103.297 252.491,103.143 252.491 C 102.990 252.491,102.947 252.625,103.048 252.788 C 103.149 252.952,103.068 253.086,102.868 253.086 C 102.667 253.086,102.591 253.174,102.699 253.281 C 102.806 253.389,102.781 253.623,102.642 253.802 C 102.504 253.980,102.017 255.130,101.561 256.357 C 101.106 257.584,100.625 258.726,100.494 258.895 C 100.364 259.064,99.897 260.202,99.458 261.423 C 99.020 262.644,98.532 263.725,98.376 263.825 C 98.219 263.925,98.116 264.098,98.147 264.210 C 98.244 264.561,97.486 266.171,97.222 266.171 C 97.084 266.171,97.045 266.365,97.136 266.602 C 97.227 266.839,96.901 267.876,96.413 268.907 C 95.924 269.937,95.164 271.717,94.724 272.862 C 94.283 274.007,93.824 275.078,93.702 275.242 C 93.580 275.405,93.165 276.409,92.781 277.472 C 92.397 278.535,91.962 279.487,91.815 279.587 C 91.668 279.687,91.559 279.855,91.573 279.959 C 91.618 280.298,91.498 280.663,90.902 281.998 C 90.631 282.606,90.409 283.242,90.409 283.411 C 90.409 283.579,90.275 283.717,90.112 283.717 C 89.948 283.717,89.840 283.818,89.871 283.941 C 89.970 284.332,89.477 286.097,89.268 286.097 C 89.067 286.097,88.327 288.197,88.327 288.769 C 88.327 288.962,90.213 289.071,93.553 289.071 C 98.729 289.071,99.333 288.965,99.545 288.023 C 99.683 287.408,100.945 284.156,101.101 284.015 C 101.190 283.933,101.301 283.532,101.347 283.123 C 101.393 282.714,101.560 282.335,101.719 282.280 C 101.878 282.226,102.007 281.998,102.007 281.774 C 102.007 281.550,102.148 281.059,102.319 280.683 L 102.630 280.000 113.000 280.000 L 123.370 280.000 123.722 281.172 C 123.915 281.817,124.216 282.687,124.391 283.105 C 124.565 283.524,124.731 283.933,124.758 284.015 C 124.786 284.097,124.965 284.543,125.157 285.006 C 125.349 285.470,125.430 285.972,125.338 286.122 C 125.245 286.271,125.294 286.394,125.446 286.394 C 125.598 286.394,125.891 286.996,126.097 287.732 L 126.471 289.071 132.232 289.071 C 135.400 289.071,137.988 288.970,137.982 288.848 C 137.977 288.725,137.720 288.092,137.413 287.441 C 137.105 286.789,136.916 286.154,136.994 286.028 C 137.072 285.902,137.005 285.799,136.845 285.799 C 136.685 285.799,136.256 284.896,135.891 283.792 C 135.526 282.688,135.102 281.703,134.949 281.602 C 134.796 281.502,134.690 281.369,134.715 281.305 C 134.773 281.155,134.512 280.458,133.449 277.918 C 132.969 276.773,132.268 275.033,131.891 274.052 C 131.514 273.071,131.050 271.866,130.861 271.375 C 130.671 270.885,130.537 270.431,130.562 270.368 C 130.588 270.304,130.490 270.170,130.345 270.070 C 129.885 269.753,129.018 267.093,129.245 266.698 C 129.365 266.490,129.355 266.418,129.222 266.538 C 128.949 266.786,128.586 266.150,127.653 263.792 C 126.703 261.390,126.346 260.386,126.399 260.256 C 126.424 260.193,126.322 260.059,126.171 259.959 C 125.787 259.704,125.177 257.831,125.374 257.512 C 125.464 257.368,125.406 257.249,125.245 257.249 C 125.085 257.249,124.790 256.747,124.590 256.134 C 124.390 255.520,124.137 254.952,124.028 254.870 C 123.919 254.788,123.530 253.974,123.164 253.061 C 121.691 249.382,117.706 245.959,114.887 245.951 C 114.365 245.949,113.856 245.814,113.755 245.651 C 113.654 245.487,113.319 245.353,113.011 245.353 C 112.703 245.353,112.369 245.487,112.268 245.651 M0.297 267.361 L 0.297 289.071 5.948 289.071 L 11.599 289.071 11.599 280.892 L 11.599 272.714 22.751 272.714 L 33.903 272.714 33.903 267.807 L 33.903 262.900 22.738 262.900 L 11.572 262.900 11.616 259.257 L 11.660 255.613 22.782 255.698 L 33.903 255.783 33.903 250.717 L 33.903 245.651 17.100 245.651 L 0.297 245.651 0.297 267.361 M40.743 250.581 L 40.743 255.512 45.428 255.432 L 50.112 255.353 50.479 256.078 C 50.751 256.616,50.847 259.778,50.851 268.327 L 50.855 279.851 45.353 279.851 L 39.851 279.851 39.851 284.464 L 39.851 289.076 55.390 288.999 L 70.929 288.922 71.012 284.373 L 71.094 279.825 66.402 279.867 L 61.710 279.909 61.660 267.166 C 61.633 260.158,61.521 254.196,61.411 253.918 C 61.301 253.639,61.298 253.271,61.404 253.100 C 61.510 252.928,61.482 252.788,61.341 252.788 C 61.201 252.788,60.912 252.306,60.699 251.717 C 60.384 250.846,57.398 247.090,57.398 247.565 C 57.398 247.640,56.996 247.561,56.506 247.390 C 56.015 247.219,55.613 246.963,55.613 246.820 C 55.613 246.678,55.426 246.633,55.197 246.721 C 54.969 246.809,54.693 246.738,54.585 246.563 C 54.477 246.388,53.869 246.245,53.234 246.245 C 52.599 246.245,51.997 246.112,51.896 245.948 C 51.784 245.767,49.563 245.651,46.228 245.651 L 40.743 245.651 40.743 250.581 M223.941 267.361 L 223.941 289.071 229.145 289.071 L 234.349 289.071 234.349 267.361 L 234.349 245.651 229.145 245.651 L 223.941 245.651 223.941 267.361 M286.692 251.078 L 286.692 254.424 284.015 254.320 L 281.338 254.216 281.338 258.248 L 281.338 262.280 283.643 262.367 L 285.948 262.454 285.992 270.335 C 286.017 274.669,286.107 278.416,286.193 278.662 C 286.279 278.907,286.434 279.740,286.538 280.514 C 286.641 281.287,286.854 281.999,287.011 282.095 C 287.168 282.192,287.219 282.396,287.125 282.548 C 287.031 282.701,287.081 282.825,287.236 282.825 C 287.392 282.825,287.595 283.126,287.689 283.494 C 288.043 284.894,291.390 287.584,292.776 287.584 C 293.028 287.584,293.234 287.709,293.234 287.863 C 293.234 288.016,293.468 288.155,293.755 288.172 C 296.330 288.323,298.189 288.572,298.424 288.798 C 298.579 288.948,300.787 289.071,303.331 289.071 L 307.955 289.072 307.865 284.908 L 307.775 280.743 303.850 280.699 C 301.692 280.674,299.502 280.640,298.983 280.624 C 297.844 280.589,296.409 279.361,296.609 278.594 C 296.685 278.305,296.626 277.993,296.478 277.901 C 295.949 277.574,296.143 262.691,296.679 262.485 C 296.937 262.386,299.547 262.305,302.478 262.305 L 307.807 262.305 307.807 258.272 L 307.807 254.240 302.007 254.332 L 296.207 254.424 296.208 251.078 L 296.208 247.732 291.450 247.732 L 286.691 247.732 286.692 251.078 M141.859 271.673 L 141.859 289.071 147.060 289.071 L 152.261 289.071 152.339 276.276 L 152.416 263.482 158.440 263.455 C 163.529 263.432,164.579 263.503,165.201 263.911 C 165.965 264.411,166.447 265.605,166.107 266.154 C 166.000 266.327,166.053 266.468,166.224 266.468 C 166.434 266.468,166.561 270.123,166.614 277.695 L 166.691 288.922 171.970 289.003 L 177.249 289.084 177.249 277.943 C 177.249 270.187,177.150 266.740,176.923 266.600 C 176.744 266.489,176.650 265.946,176.715 265.392 C 176.779 264.839,176.725 264.387,176.595 264.387 C 176.464 264.387,176.357 264.073,176.357 263.691 C 176.357 261.565,173.229 257.473,170.742 256.343 C 169.986 256.000,169.117 255.584,168.810 255.418 C 168.504 255.252,167.266 255.041,166.059 254.950 C 164.853 254.859,163.866 254.670,163.866 254.530 C 163.866 254.390,158.914 254.275,152.862 254.275 L 141.859 254.275 141.859 271.673 M183.494 258.290 L 183.494 262.305 192.250 262.305 C 200.282 262.305,202.866 262.539,201.150 263.111 C 200.881 263.201,193.549 268.217,192.862 268.781 C 192.699 268.915,191.762 269.571,190.781 270.237 C 186.799 272.941,183.494 276.622,183.494 278.352 C 183.494 278.686,183.387 278.959,183.256 278.959 C 183.124 278.959,183.024 279.695,183.033 280.595 C 183.041 281.494,183.134 282.230,183.238 282.230 C 183.343 282.230,183.518 282.711,183.629 283.298 C 183.877 284.625,185.856 286.836,187.242 287.338 C 187.798 287.539,188.253 287.788,188.253 287.891 C 188.253 287.995,188.420 288.099,188.625 288.122 C 191.263 288.426,192.157 288.594,192.291 288.812 C 192.379 288.954,197.793 289.071,204.323 289.071 L 216.194 289.071 216.275 278.290 C 216.320 272.319,216.240 267.424,216.095 267.319 C 215.951 267.215,215.894 266.720,215.967 266.220 C 216.046 265.680,215.984 265.382,215.814 265.487 C 215.645 265.592,215.589 265.342,215.678 264.877 C 215.761 264.444,215.713 264.089,215.572 264.089 C 215.431 264.089,215.316 263.900,215.316 263.668 C 215.316 263.436,215.176 263.200,215.005 263.143 C 214.835 263.086,214.672 262.740,214.645 262.375 C 214.617 262.009,214.518 261.710,214.425 261.710 C 214.331 261.710,214.026 261.323,213.746 260.849 C 212.651 258.995,209.251 256.357,207.958 256.357 C 207.752 256.357,207.584 256.227,207.584 256.069 C 207.584 255.910,207.383 255.858,207.138 255.952 C 206.892 256.046,206.691 255.983,206.691 255.812 C 206.691 255.641,206.457 255.495,206.171 255.487 C 205.059 255.455,203.431 255.093,203.548 254.904 C 203.616 254.794,202.745 254.757,201.612 254.821 C 200.230 254.899,199.554 254.828,199.554 254.606 C 199.554 254.371,197.222 254.275,191.524 254.275 L 183.494 254.275 183.494 258.290 M239.331 254.472 C 239.535 254.555,239.703 254.778,239.704 254.969 C 239.705 255.160,239.919 255.717,240.178 256.208 C 240.437 256.699,240.987 258.037,241.400 259.182 C 241.813 260.327,242.285 261.431,242.450 261.636 C 242.615 261.840,242.633 262.009,242.490 262.012 C 242.347 262.014,242.411 262.131,242.631 262.271 C 242.852 262.410,243.052 262.876,243.077 263.307 C 243.102 263.737,243.210 264.089,243.318 264.089 C 243.425 264.089,243.718 264.658,243.968 265.353 C 244.218 266.048,245.020 268.056,245.751 269.814 C 246.481 271.572,246.992 273.013,246.885 273.016 C 246.779 273.018,246.834 273.119,247.008 273.239 C 247.182 273.359,247.635 274.327,248.016 275.390 C 248.397 276.454,248.880 277.604,249.089 277.946 C 249.298 278.288,249.513 278.823,249.567 279.135 C 249.690 279.846,252.065 282.230,252.651 282.230 C 252.890 282.230,253.087 282.331,253.088 282.454 C 253.090 282.576,254.180 282.714,255.510 282.760 C 258.251 282.854,258.528 282.947,258.174 283.657 C 258.035 283.936,257.641 284.793,257.298 285.562 C 256.236 287.949,255.992 288.018,249.040 287.918 L 242.998 287.830 242.826 288.525 C 242.731 288.907,242.693 291.026,242.740 293.234 L 242.825 297.249 247.881 297.228 C 253.174 297.205,255.569 297.051,256.417 296.676 C 256.695 296.553,257.063 296.540,257.235 296.645 C 257.406 296.751,257.546 296.696,257.546 296.523 C 257.546 296.350,257.714 296.207,257.918 296.205 C 259.627 296.192,263.842 292.945,265.198 290.598 C 265.636 289.840,266.083 289.152,266.193 289.071 C 266.303 288.989,266.703 287.952,267.084 286.766 C 267.464 285.580,267.890 284.610,268.031 284.610 C 268.173 284.610,268.208 284.480,268.110 284.322 C 268.013 284.165,268.182 283.529,268.487 282.910 C 268.792 282.291,269.286 280.948,269.586 279.926 C 269.886 278.903,270.244 278.067,270.382 278.067 C 270.519 278.067,270.611 277.967,270.585 277.844 C 270.559 277.721,270.618 277.420,270.716 277.175 C 270.814 276.929,271.265 275.591,271.719 274.201 C 272.172 272.810,272.682 271.575,272.852 271.454 C 273.021 271.334,273.043 271.234,272.900 271.231 C 272.758 271.229,272.777 271.059,272.944 270.855 C 273.110 270.651,273.521 269.587,273.858 268.491 C 274.194 267.395,274.734 265.919,275.057 265.209 C 275.380 264.500,275.735 263.556,275.847 263.112 C 275.958 262.668,276.177 262.305,276.332 262.305 C 276.488 262.305,276.538 262.179,276.443 262.026 C 276.348 261.873,276.551 261.037,276.893 260.168 C 277.535 258.537,278.959 254.543,278.959 254.372 C 278.959 254.319,276.483 254.275,273.457 254.275 C 268.765 254.275,267.955 254.341,267.955 254.721 C 267.955 254.967,267.814 255.167,267.640 255.167 C 267.467 255.167,267.412 255.307,267.517 255.478 C 267.623 255.648,267.547 255.983,267.350 256.221 C 267.152 256.459,267.090 256.654,267.212 256.654 C 267.334 256.654,267.299 256.822,267.134 257.026 C 266.969 257.230,266.741 257.833,266.628 258.364 C 266.514 258.896,266.290 259.331,266.130 259.331 C 265.970 259.331,265.921 259.464,266.021 259.626 C 266.228 259.962,265.259 263.293,264.910 263.445 C 264.783 263.500,264.760 263.673,264.856 263.830 C 264.953 263.987,264.902 264.277,264.742 264.474 C 264.582 264.671,264.155 265.903,263.795 267.212 C 263.434 268.520,262.959 269.993,262.741 270.483 C 262.522 270.974,262.066 272.330,261.727 273.497 C 260.703 277.024,259.187 277.194,258.101 273.903 C 257.804 273.004,257.419 272.028,257.246 271.735 C 257.073 271.442,257.004 271.086,257.092 270.943 C 257.180 270.800,257.138 270.638,256.998 270.583 C 256.858 270.528,256.370 269.346,255.915 267.955 C 255.460 266.565,254.960 265.266,254.805 265.069 C 254.649 264.871,254.608 264.570,254.713 264.400 C 254.819 264.229,254.788 264.089,254.644 264.089 C 254.501 264.089,254.142 263.320,253.846 262.379 C 253.550 261.439,253.182 260.335,253.027 259.926 C 252.873 259.517,252.767 259.130,252.793 259.067 C 252.818 259.003,252.719 258.869,252.572 258.769 C 252.426 258.669,252.004 257.617,251.634 256.431 L 250.962 254.275 244.961 254.299 C 241.660 254.311,239.126 254.390,239.331 254.472 M314.944 271.673 L 314.944 289.071 320.149 289.071 L 325.353 289.071 325.353 271.673 L 325.353 254.275 320.149 254.275 L 314.944 254.275 314.944 271.673 M347.748 254.602 C 347.560 254.789,346.710 254.884,345.755 254.825 C 344.838 254.768,344.089 254.822,344.089 254.944 C 344.089 255.067,343.696 255.167,343.215 255.167 C 342.734 255.167,342.255 255.305,342.151 255.473 C 342.047 255.640,341.805 255.747,341.613 255.710 C 341.421 255.672,340.611 255.936,339.813 256.296 C 339.016 256.657,338.272 256.952,338.160 256.952 C 337.752 256.952,335.101 259.488,334.701 260.262 C 334.474 260.700,334.109 261.239,333.889 261.459 C 333.432 261.916,332.491 264.522,332.491 265.332 C 332.491 265.630,332.390 265.874,332.268 265.874 C 332.145 265.874,332.045 268.483,332.045 271.673 C 332.045 274.862,332.127 277.472,332.229 277.472 C 332.330 277.472,332.485 277.915,332.572 278.455 C 332.660 278.996,332.940 279.936,333.193 280.543 C 333.447 281.150,333.666 281.706,333.680 281.779 C 333.840 282.609,337.530 286.095,338.777 286.594 C 339.409 286.847,339.926 287.160,339.926 287.291 C 339.926 287.421,340.193 287.458,340.520 287.372 C 340.866 287.282,341.115 287.363,341.115 287.567 C 341.115 287.759,341.255 287.830,341.426 287.724 C 341.596 287.619,341.898 287.660,342.095 287.815 C 342.488 288.124,342.417 288.113,345.499 288.366 C 346.683 288.463,347.584 288.653,347.500 288.788 C 347.417 288.922,350.697 289.045,354.790 289.060 L 362.230 289.088 362.230 285.082 C 362.230 282.879,362.121 281.008,361.987 280.926 C 361.854 280.843,358.304 280.750,354.098 280.718 C 349.893 280.686,346.385 280.551,346.302 280.417 C 346.219 280.284,345.973 280.243,345.754 280.327 C 345.012 280.612,343.095 278.460,343.070 277.314 C 343.058 276.748,342.933 276.284,342.791 276.283 C 342.369 276.282,342.718 266.429,343.170 265.608 C 344.231 263.677,346.377 262.414,348.001 262.764 C 348.436 262.858,348.879 262.793,348.986 262.620 C 349.113 262.414,351.435 262.305,355.705 262.305 L 362.230 262.305 362.230 258.290 L 362.230 254.275 355.152 254.275 C 350.407 254.275,347.967 254.383,347.748 254.602 M380.163 254.603 C 379.978 254.788,379.172 254.885,378.319 254.826 C 377.485 254.768,376.803 254.837,376.803 254.979 C 376.803 255.121,376.475 255.174,376.074 255.097 C 375.627 255.012,375.286 255.115,375.190 255.363 C 375.105 255.585,374.931 255.737,374.804 255.701 C 373.103 255.207,368.178 260.087,368.178 262.265 C 368.178 262.560,368.098 262.881,368.000 262.979 C 367.730 263.249,367.686 266.199,367.949 266.362 C 368.075 266.440,368.178 266.737,368.178 267.022 C 368.178 269.126,371.280 272.504,374.147 273.522 C 374.953 273.809,375.613 274.141,375.613 274.261 C 375.613 274.381,375.801 274.408,376.029 274.320 C 376.258 274.232,376.526 274.291,376.624 274.450 C 376.723 274.609,377.056 274.674,377.365 274.593 C 377.673 274.512,378.015 274.592,378.125 274.770 C 378.235 274.947,378.719 275.093,379.200 275.093 C 379.681 275.093,380.074 275.204,380.074 275.339 C 380.074 275.474,380.476 275.526,380.967 275.454 C 381.457 275.382,381.860 275.438,381.861 275.580 C 381.862 275.721,382.456 275.853,383.182 275.872 C 383.908 275.892,384.743 276.013,385.039 276.140 C 385.334 276.267,385.865 276.343,386.217 276.309 C 386.569 276.275,386.947 276.391,387.055 276.567 C 387.164 276.743,387.384 276.806,387.544 276.707 C 388.316 276.230,390.483 277.748,390.483 278.766 C 390.483 280.698,390.548 280.687,379.396 280.730 C 373.871 280.752,369.153 280.845,368.913 280.937 C 368.559 281.073,368.476 281.859,368.476 285.088 L 368.476 289.071 377.338 289.071 C 382.213 289.071,386.328 288.951,386.483 288.806 C 386.639 288.660,387.636 288.460,388.699 288.362 C 391.398 288.114,391.302 288.140,394.201 286.846 C 396.758 285.705,399.407 282.414,399.153 280.695 C 399.112 280.424,399.220 280.115,399.391 280.009 C 399.770 279.775,399.805 277.071,399.439 276.353 C 399.294 276.069,398.877 275.149,398.512 274.309 C 397.566 272.133,394.019 269.442,392.094 269.442 C 391.863 269.442,391.673 269.313,391.673 269.154 C 391.673 268.996,391.486 268.938,391.257 269.026 C 391.028 269.114,390.752 269.043,390.645 268.868 C 390.537 268.693,390.188 268.550,389.871 268.550 C 389.553 268.550,389.294 268.408,389.294 268.235 C 389.294 268.062,389.172 267.995,389.024 268.087 C 388.685 268.296,384.238 267.620,384.238 267.359 C 384.238 267.253,383.836 267.225,383.346 267.297 C 382.784 267.380,382.454 267.298,382.454 267.077 C 382.454 266.858,382.224 266.799,381.844 266.919 C 381.509 267.025,381.047 266.956,380.817 266.765 C 380.586 266.574,380.272 266.495,380.119 266.590 C 379.618 266.899,377.681 265.876,377.408 265.158 C 376.850 263.690,377.627 262.455,378.942 262.718 C 379.401 262.810,379.777 262.754,379.777 262.595 C 379.777 262.413,383.154 262.305,388.848 262.305 L 397.918 262.305 397.918 258.290 L 397.918 254.275 389.204 254.275 C 383.249 254.275,380.387 254.379,380.163 254.603 M114.157 256.230 C 114.349 256.652,114.429 257.120,114.336 257.271 C 114.242 257.423,114.292 257.546,114.446 257.546 C 114.601 257.546,114.956 258.249,115.236 259.108 C 115.516 259.967,115.877 260.831,116.039 261.028 C 116.201 261.225,116.254 261.515,116.158 261.672 C 116.061 261.828,116.112 262.002,116.272 262.056 C 116.432 262.111,116.600 262.491,116.646 262.900 C 116.691 263.309,116.796 263.710,116.877 263.792 C 117.357 264.271,118.020 266.171,117.708 266.171 C 117.513 266.171,117.573 266.335,117.844 266.543 C 118.315 266.904,119.553 269.811,119.554 270.558 C 119.554 270.844,118.021 270.929,112.880 270.929 C 106.676 270.929,106.214 270.893,106.325 270.409 C 106.491 269.688,107.850 266.078,108.518 264.582 C 108.821 263.902,109.240 262.810,109.448 262.156 C 109.655 261.502,110.208 260.127,110.675 259.100 C 111.142 258.074,111.524 257.179,111.524 257.112 C 111.524 255.484,113.513 254.818,114.157 256.230 M206.349 274.958 L 206.453 280.769 200.469 280.725 C 191.423 280.658,191.430 280.539,200.892 273.156 C 202.691 271.752,204.560 270.275,205.045 269.874 C 205.530 269.473,205.999 269.145,206.086 269.146 C 206.174 269.147,206.292 271.762,206.349 274.958 " stroke="none" fill="#fcece4" fill-rule="evenodd"></path><path id="path1" d="M314.469 245.948 C 314.469 248.483,314.515 249.520,314.571 248.253 C 314.626 246.985,314.626 244.911,314.571 243.643 C 314.515 242.375,314.469 243.413,314.469 245.948 M325.770 245.948 C 325.770 248.483,325.816 249.520,325.872 248.253 C 325.927 246.985,325.927 244.911,325.872 243.643 C 325.816 242.375,325.770 243.413,325.770 245.948 M34.323 250.706 C 34.323 253.569,34.368 254.740,34.422 253.309 C 34.477 251.877,34.477 249.535,34.422 248.104 C 34.368 246.673,34.323 247.844,34.323 250.706 M40.270 250.558 C 40.270 253.338,40.315 254.516,40.370 253.174 C 40.425 251.833,40.425 249.558,40.370 248.119 C 40.316 246.679,40.271 247.777,40.270 250.558 M53.086 245.948 C 53.187 246.112,53.462 246.245,53.698 246.245 C 53.934 246.245,54.126 246.112,54.126 245.948 C 54.126 245.784,53.851 245.651,53.514 245.651 C 53.177 245.651,52.984 245.784,53.086 245.948 M116.580 245.913 C 116.580 246.058,116.814 246.243,117.100 246.326 C 117.387 246.408,117.888 246.571,118.216 246.689 C 118.546 246.808,118.414 246.626,117.918 246.279 C 116.953 245.603,116.580 245.501,116.580 245.913 M223.487 267.361 C 223.487 279.383,223.524 284.301,223.569 278.290 C 223.614 272.279,223.614 262.442,223.569 256.431 C 223.524 250.420,223.487 255.338,223.487 267.361 M234.788 267.361 C 234.788 279.383,234.825 284.301,234.870 278.290 C 234.915 272.279,234.915 262.442,234.870 256.431 C 234.825 250.420,234.788 255.338,234.788 267.361 M0.141 267.509 C 0.141 279.450,0.178 284.291,0.223 278.268 C 0.268 272.245,0.268 262.475,0.223 256.558 C 0.178 250.641,0.141 255.569,0.141 267.509 M286.097 250.706 C 286.097 252.887,286.212 254.275,286.394 254.275 C 286.575 254.275,286.691 252.937,286.691 250.855 L 286.691 247.435 291.589 247.435 L 296.487 247.435 296.581 250.929 L 296.675 254.424 296.739 250.781 L 296.803 247.138 291.450 247.138 L 286.097 247.138 286.097 250.706 M102.587 252.681 C 102.422 253.112,102.343 253.521,102.411 253.588 C 102.478 253.655,102.676 253.302,102.850 252.803 C 103.237 251.694,103.003 251.585,102.587 252.681 M124.024 254.183 C 124.019 254.378,124.151 254.621,124.317 254.724 C 124.483 254.827,124.542 255.036,124.448 255.188 C 124.354 255.340,124.419 255.465,124.592 255.465 C 125.029 255.465,124.986 255.087,124.470 254.406 C 124.230 254.089,124.030 253.988,124.024 254.183 M61.863 266.989 C 61.860 275.369,61.962 279.851,62.156 279.851 C 62.555 279.851,62.555 255.189,62.156 254.572 C 61.968 254.281,61.866 258.575,61.863 266.989 M141.264 271.623 C 141.264 283.377,141.364 289.071,141.570 289.071 C 141.861 289.071,141.676 254.604,141.383 254.300 C 141.318 254.232,141.264 262.027,141.264 271.623 M165.754 254.612 C 166.147 254.841,166.396 254.839,166.631 254.603 C 166.870 254.364,166.722 254.278,166.082 254.284 C 165.313 254.292,165.272 254.333,165.754 254.612 M201.710 254.596 C 202.064 254.802,202.397 254.802,202.751 254.596 C 203.176 254.349,203.080 254.293,202.230 254.293 C 201.381 254.293,201.285 254.349,201.710 254.596 M314.489 271.673 C 314.489 281.323,314.526 285.228,314.572 280.350 C 314.618 275.473,314.618 267.577,314.572 262.804 C 314.526 258.031,314.489 262.022,314.489 271.673 M325.790 271.673 C 325.790 281.323,325.828 285.228,325.873 280.350 C 325.919 275.473,325.919 267.577,325.873 262.804 C 325.827 258.031,325.790 262.022,325.790 271.673 M344.758 254.596 C 345.112 254.802,345.446 254.802,345.799 254.596 C 346.224 254.349,346.128 254.293,345.279 254.293 C 344.430 254.293,344.334 254.349,344.758 254.596 M377.501 254.612 C 377.894 254.841,378.143 254.839,378.378 254.603 C 378.617 254.364,378.469 254.278,377.829 254.284 C 377.060 254.292,377.019 254.333,377.501 254.612 M397.918 258.587 C 397.918 261.264,398.031 262.900,398.216 262.900 C 398.400 262.900,398.513 261.264,398.513 258.587 C 398.513 255.911,398.400 254.275,398.216 254.275 C 398.031 254.275,397.918 255.911,397.918 258.587 M183.018 258.736 C 183.018 261.108,183.064 262.078,183.120 260.892 C 183.177 259.706,183.177 257.766,183.120 256.580 C 183.064 255.394,183.018 256.364,183.018 258.736 M204.015 254.870 C 204.015 255.033,204.208 255.167,204.443 255.167 C 204.679 255.167,204.955 255.033,205.056 254.870 C 205.157 254.706,204.964 254.572,204.627 254.572 C 204.290 254.572,204.015 254.706,204.015 254.870 M342.602 254.870 C 342.602 255.033,342.803 255.167,343.048 255.167 C 343.294 255.167,343.494 255.033,343.494 254.870 C 343.494 254.706,343.294 254.572,343.048 254.572 C 342.803 254.572,342.602 254.706,342.602 254.870 M362.645 258.587 C 362.646 260.877,362.692 261.775,362.749 260.582 C 362.806 259.389,362.805 257.515,362.748 256.418 C 362.691 255.321,362.645 256.297,362.645 258.587 M12.011 259.331 C 12.011 261.375,12.058 262.212,12.116 261.190 C 12.174 260.167,12.174 258.494,12.116 257.472 C 12.058 256.450,12.011 257.286,12.011 259.331 M337.383 256.693 C 337.048 256.856,336.596 257.282,336.378 257.640 C 335.983 258.287,335.984 258.287,336.712 257.618 C 337.113 257.249,337.516 257.020,337.606 257.110 C 337.696 257.201,337.850 257.068,337.946 256.816 C 338.043 256.563,338.093 256.366,338.058 256.377 C 338.022 256.388,337.718 256.530,337.383 256.693 M212.342 258.736 C 212.946 259.390,213.555 259.926,213.695 259.926 C 213.835 259.926,213.427 259.390,212.788 258.736 C 212.149 258.082,211.540 257.546,211.435 257.546 C 211.330 257.546,211.738 258.082,212.342 258.736 M334.767 258.983 C 334.225 259.582,334.106 260.065,334.571 259.778 C 334.881 259.586,335.568 258.439,335.373 258.439 C 335.310 258.439,335.038 258.683,334.767 258.983 M252.946 259.331 C 253.201 260.219,253.324 260.381,253.562 260.143 C 253.660 260.045,253.514 259.654,253.237 259.276 L 252.733 258.587 252.946 259.331 M109.542 262.773 C 109.354 263.170,109.313 263.494,109.450 263.494 C 109.709 263.494,110.171 262.340,109.987 262.155 C 109.929 262.098,109.729 262.376,109.542 262.773 M34.322 267.807 C 34.322 270.587,34.367 271.765,34.422 270.424 C 34.477 269.082,34.477 266.807,34.422 265.368 C 34.368 263.929,34.323 265.026,34.322 267.807 M285.630 270.037 C 285.630 274.045,285.673 275.684,285.724 273.680 C 285.775 271.677,285.775 268.398,285.724 266.394 C 285.673 264.390,285.630 266.030,285.630 270.037 M296.633 269.740 C 296.633 273.584,296.676 275.156,296.728 273.234 C 296.779 271.312,296.779 268.167,296.728 266.245 C 296.676 264.323,296.633 265.896,296.633 269.740 M377.826 263.336 C 377.075 263.904,377.401 263.910,378.479 263.348 C 378.948 263.103,379.122 262.902,378.867 262.901 C 378.612 262.900,378.144 263.096,377.826 263.336 M367.371 264.535 C 367.374 265.353,367.431 265.652,367.500 265.200 C 367.568 264.748,367.566 264.079,367.496 263.713 C 367.425 263.348,367.369 263.717,367.371 264.535 M152.702 276.283 C 152.702 283.398,152.740 286.309,152.788 282.751 C 152.835 279.193,152.835 273.372,152.788 269.814 C 152.740 266.257,152.702 269.167,152.702 276.283 M345.130 263.722 C 344.967 263.842,344.567 264.275,344.243 264.684 C 343.750 265.305,343.811 265.284,344.614 264.554 C 345.483 263.765,345.718 263.486,345.502 263.499 C 345.461 263.501,345.294 263.602,345.130 263.722 M108.848 264.065 C 108.848 264.215,108.770 264.583,108.675 264.883 C 108.516 265.381,108.542 265.378,108.972 264.850 C 109.511 264.189,109.576 263.792,109.145 263.792 C 108.981 263.792,108.848 263.915,108.848 264.065 M379.480 266.171 C 379.480 266.335,379.755 266.468,380.092 266.468 C 380.429 266.468,380.622 266.335,380.520 266.171 C 380.419 266.007,380.144 265.874,379.908 265.874 C 379.672 265.874,379.480 266.007,379.480 266.171 M331.674 267.212 C 331.677 267.866,331.738 268.099,331.809 267.729 C 331.880 267.359,331.877 266.824,331.803 266.539 C 331.728 266.255,331.670 266.558,331.674 267.212 M165.948 278.049 C 165.948 285.199,166.052 289.071,166.245 289.071 C 166.438 289.071,166.543 285.260,166.543 278.233 C 166.543 271.329,166.435 267.329,166.245 267.212 C 166.049 267.091,165.948 270.778,165.948 278.049 M192.937 267.883 C 192.487 268.162,192.119 268.514,192.119 268.665 C 192.119 268.816,192.364 268.718,192.664 268.447 C 192.963 268.176,193.281 268.027,193.370 268.116 C 193.459 268.205,193.612 268.072,193.709 267.820 C 193.923 267.261,193.944 267.259,192.937 267.883 M216.640 278.364 C 216.640 284.335,216.680 286.777,216.728 283.792 C 216.777 280.807,216.777 275.922,216.728 272.937 C 216.680 269.952,216.640 272.394,216.640 278.364 M177.383 278.364 C 177.383 284.171,177.423 286.546,177.472 283.643 C 177.520 280.740,177.520 275.989,177.472 273.086 C 177.423 270.182,177.383 272.558,177.383 278.364 M389.591 268.253 C 389.591 268.416,389.792 268.550,390.037 268.550 C 390.283 268.550,390.483 268.416,390.483 268.253 C 390.483 268.089,390.283 267.955,390.037 267.955 C 389.792 267.955,389.591 268.089,389.591 268.253 M367.886 268.455 C 367.894 268.910,368.442 269.575,368.644 269.374 C 368.754 269.263,368.627 268.957,368.363 268.692 C 368.098 268.427,367.883 268.320,367.886 268.455 M343.010 271.822 C 343.010 273.539,343.059 274.242,343.119 273.383 C 343.179 272.524,343.179 271.119,343.119 270.260 C 343.059 269.401,343.010 270.104,343.010 271.822 M204.316 270.923 C 204.063 271.394,204.086 271.478,204.431 271.346 C 204.931 271.154,205.318 270.335,204.908 270.335 C 204.756 270.335,204.489 270.599,204.316 270.923 M369.368 270.815 C 369.368 271.172,370.500 272.283,370.669 272.092 C 370.729 272.025,370.460 271.639,370.073 271.233 C 369.685 270.828,369.368 270.640,369.368 270.815 M131.113 271.328 C 131.296 271.548,131.357 271.816,131.249 271.923 C 131.141 272.031,131.209 272.119,131.400 272.119 C 131.798 272.119,131.815 272.047,131.567 271.400 C 131.467 271.141,131.250 270.929,131.084 270.929 C 130.894 270.929,130.905 271.078,131.113 271.328 M257.556 271.730 C 257.551 271.924,257.682 272.168,257.849 272.271 C 258.015 272.373,258.080 272.573,257.993 272.714 C 257.905 272.855,257.970 273.054,258.136 273.157 C 258.303 273.260,258.439 273.161,258.439 272.937 C 258.439 272.431,257.569 271.242,257.556 271.730 M186.665 272.714 C 186.201 273.205,186.026 273.529,186.276 273.433 C 186.654 273.288,187.849 271.822,187.590 271.822 C 187.544 271.822,187.128 272.223,186.665 272.714 M245.948 272.062 C 245.948 272.194,246.160 272.562,246.418 272.880 C 246.849 273.408,246.874 273.411,246.716 272.912 C 246.621 272.613,246.543 272.245,246.543 272.095 C 246.543 271.944,246.409 271.822,246.245 271.822 C 246.082 271.822,245.948 271.930,245.948 272.062 M397.801 272.540 C 397.901 272.799,398.113 273.011,398.272 273.011 C 398.663 273.011,398.418 272.335,397.974 272.187 C 397.756 272.115,397.690 272.251,397.801 272.540 M12.026 280.743 C 12.026 285.242,12.068 287.082,12.118 284.833 C 12.169 282.584,12.169 278.903,12.118 276.654 C 12.068 274.405,12.026 276.245,12.026 280.743 M205.799 276.828 C 205.799 279.136,205.911 280.446,206.109 280.446 C 206.394 280.446,206.202 273.670,205.908 273.333 C 205.848 273.265,205.799 274.838,205.799 276.828 M184.238 275.093 C 183.942 275.420,183.849 275.688,184.033 275.688 C 184.216 275.688,184.509 275.420,184.684 275.093 C 184.859 274.766,184.951 274.498,184.889 274.498 C 184.827 274.498,184.534 274.766,184.238 275.093 M376.952 275.093 C 377.053 275.257,377.328 275.390,377.564 275.390 C 377.800 275.390,377.993 275.257,377.993 275.093 C 377.993 274.929,377.717 274.796,377.380 274.796 C 377.043 274.796,376.851 274.929,376.952 275.093 M198.364 275.539 C 198.158 275.788,198.126 275.985,198.291 275.985 C 198.455 275.985,198.755 275.784,198.959 275.539 C 199.166 275.290,199.198 275.093,199.032 275.093 C 198.868 275.093,198.568 275.294,198.364 275.539 M378.587 275.390 C 378.587 275.554,378.863 275.688,379.200 275.688 C 379.536 275.688,379.729 275.554,379.628 275.390 C 379.527 275.227,379.252 275.093,379.016 275.093 C 378.780 275.093,378.587 275.227,378.587 275.390 M331.668 276.283 C 331.668 276.855,331.729 277.089,331.804 276.803 C 331.878 276.517,331.878 276.048,331.804 275.762 C 331.729 275.476,331.668 275.710,331.668 276.283 M399.788 278.216 C 399.790 279.033,399.848 279.333,399.916 278.881 C 399.984 278.429,399.983 277.759,399.912 277.394 C 399.841 277.028,399.785 277.398,399.788 278.216 M194.954 278.243 L 194.449 279.013 195.366 278.335 C 196.397 277.573,196.456 277.472,195.871 277.472 C 195.644 277.472,195.232 277.819,194.954 278.243 M296.826 278.372 C 296.796 278.954,297.627 280.149,298.061 280.149 C 298.244 280.149,298.120 279.848,297.785 279.480 C 297.450 279.112,297.103 278.610,297.013 278.364 C 296.870 277.973,296.847 277.974,296.826 278.372 M285.799 279.851 C 285.799 280.406,285.879 280.486,286.156 280.208 C 286.434 279.931,286.434 279.772,286.156 279.494 C 285.879 279.217,285.799 279.296,285.799 279.851 M182.683 280.743 C 182.683 281.480,182.741 281.781,182.812 281.413 C 182.883 281.045,182.883 280.442,182.812 280.074 C 182.741 279.706,182.683 280.007,182.683 280.743 M39.257 284.461 C 39.257 287.336,39.368 289.071,39.554 289.071 C 39.739 289.071,39.851 287.336,39.851 284.461 C 39.851 281.586,39.739 279.851,39.554 279.851 C 39.368 279.851,39.257 281.586,39.257 284.461 M71.495 284.312 C 71.495 286.848,71.541 287.885,71.597 286.617 C 71.652 285.349,71.652 283.275,71.597 282.007 C 71.541 280.740,71.495 281.777,71.495 284.312 M90.582 280.935 C 90.333 281.584,90.664 281.885,91.015 281.330 C 91.367 280.774,91.375 280.446,91.036 280.446 C 90.889 280.446,90.686 280.666,90.582 280.935 M362.645 284.758 C 362.646 287.048,362.692 287.946,362.749 286.753 C 362.806 285.560,362.805 283.686,362.748 282.589 C 362.691 281.492,362.645 282.468,362.645 284.758 M333.317 281.914 C 333.592 282.394,333.859 282.746,333.909 282.696 C 334.070 282.535,333.296 281.041,333.052 281.041 C 332.922 281.041,333.041 281.434,333.317 281.914 M268.848 282.504 C 268.848 282.654,268.770 283.022,268.675 283.321 C 268.516 283.820,268.542 283.817,268.972 283.289 C 269.511 282.628,269.576 282.230,269.145 282.230 C 268.981 282.230,268.848 282.353,268.848 282.504 M287.010 283.271 C 287.010 283.435,287.201 283.903,287.435 284.312 C 287.669 284.721,287.860 284.922,287.860 284.758 C 287.860 284.595,287.669 284.126,287.435 283.717 C 287.201 283.309,287.010 283.108,287.010 283.271 M124.015 283.832 C 124.015 283.895,124.215 284.330,124.459 284.799 C 124.923 285.688,125.025 285.526,124.720 284.387 C 124.574 283.844,124.015 283.404,124.015 283.832 M256.703 285.366 C 256.204 286.460,256.299 286.693,256.838 285.699 C 257.090 285.234,257.240 284.799,257.172 284.731 C 257.104 284.663,256.893 284.949,256.703 285.366 M337.072 286.219 C 338.028 287.071,338.141 287.122,338.141 286.699 C 338.141 286.540,337.706 286.193,337.175 285.929 L 336.208 285.449 337.072 286.219 M100.320 286.292 C 100.427 286.400,100.364 286.671,100.178 286.894 C 99.885 287.247,100.037 287.889,100.335 287.559 C 100.704 287.149,100.817 286.097,100.491 286.097 C 100.289 286.097,100.212 286.185,100.320 286.292 M289.665 286.660 C 289.665 287.036,290.838 287.700,291.079 287.459 C 291.174 287.364,291.105 287.286,290.926 287.286 C 290.747 287.286,290.390 287.076,290.133 286.819 C 289.876 286.562,289.665 286.490,289.665 286.660 M390.632 288.476 C 390.531 288.639,390.649 288.773,390.894 288.773 C 391.140 288.773,391.423 288.639,391.524 288.476 C 391.625 288.312,391.507 288.178,391.262 288.178 C 391.017 288.178,390.733 288.312,390.632 288.476 M189.740 288.773 C 189.740 288.937,190.007 289.071,190.335 289.071 C 190.662 289.071,190.929 288.937,190.929 288.773 C 190.929 288.610,190.662 288.476,190.335 288.476 C 190.007 288.476,189.740 288.610,189.740 288.773 M295.316 288.773 C 295.316 288.937,295.658 289.071,296.077 289.071 C 296.509 289.071,296.759 288.942,296.654 288.773 C 296.553 288.610,296.211 288.476,295.893 288.476 C 295.576 288.476,295.316 288.610,295.316 288.773 M344.387 288.773 C 344.387 288.937,344.863 289.071,345.445 289.071 C 346.075 289.071,346.429 288.950,346.320 288.773 C 346.219 288.610,345.742 288.476,345.261 288.476 C 344.780 288.476,344.387 288.610,344.387 288.773 M388.104 288.773 C 388.104 288.937,388.506 289.071,388.996 289.071 C 389.487 289.071,389.888 288.937,389.888 288.773 C 389.888 288.610,389.487 288.476,388.996 288.476 C 388.506 288.476,388.104 288.610,388.104 288.773 M263.411 293.274 C 262.557 294.114,262.126 294.658,262.454 294.482 C 263.115 294.126,265.469 291.747,265.160 291.747 C 265.052 291.747,264.265 292.434,263.411 293.274 " stroke="none" fill="#fccab6" fill-rule="evenodd"></path><path id="path2" d="M40.566 250.558 C 40.567 253.175,40.612 254.206,40.668 252.848 C 40.723 251.491,40.723 249.350,40.667 248.090 C 40.611 246.830,40.566 247.941,40.566 250.558 M121.040 249.740 C 121.429 250.271,121.794 250.706,121.851 250.706 C 122.077 250.706,121.339 249.591,120.852 249.195 C 120.530 248.934,120.602 249.142,121.040 249.740 M307.871 258.216 L 307.807 262.305 302.305 262.305 C 298.835 262.305,296.803 262.415,296.803 262.602 C 296.803 262.790,298.833 262.900,302.299 262.900 C 308.787 262.900,308.176 263.439,308.031 257.844 L 307.935 254.126 307.871 258.216 M11.712 259.480 C 11.713 261.442,11.761 262.207,11.819 261.178 C 11.877 260.149,11.877 258.543,11.818 257.609 C 11.759 256.675,11.711 257.517,11.712 259.480 M61.627 267.863 C 61.591 274.437,61.662 279.878,61.784 279.954 C 61.987 280.080,61.983 271.217,61.775 260.223 C 61.730 257.851,61.663 261.289,61.627 267.863 M183.494 262.602 C 183.494 262.998,200.131 262.998,200.743 262.602 C 201.037 262.413,198.164 262.312,192.342 262.309 C 186.639 262.306,183.494 262.411,183.494 262.602 M281.338 262.613 C 281.338 262.839,282.060 262.915,283.564 262.849 L 285.791 262.751 285.877 269.888 L 285.964 277.026 285.956 269.740 L 285.948 262.454 283.643 262.367 C 282.087 262.308,281.338 262.388,281.338 262.613 M349.009 262.582 C 348.905 262.750,351.547 262.871,355.706 262.889 C 360.357 262.909,362.513 262.819,362.385 262.612 C 362.142 262.219,349.251 262.190,349.009 262.582 M379.777 262.586 C 379.777 262.756,383.363 262.877,388.848 262.891 C 394.862 262.907,397.918 262.812,397.918 262.610 C 397.918 262.408,394.846 262.305,388.848 262.305 C 383.346 262.305,379.777 262.415,379.777 262.586 M152.404 263.569 C 152.325 263.773,152.296 269.561,152.339 276.431 L 152.417 288.922 152.565 276.059 C 152.647 268.985,152.676 263.197,152.630 263.197 C 152.584 263.197,152.482 263.364,152.404 263.569 M332.007 271.673 C 332.008 273.472,332.057 274.170,332.116 273.223 C 332.175 272.277,332.175 270.805,332.115 269.952 C 332.055 269.099,332.006 269.874,332.007 271.673 M11.729 281.041 C 11.729 285.539,11.770 287.379,11.821 285.130 C 11.871 282.881,11.871 279.201,11.821 276.952 C 11.770 274.703,11.729 276.543,11.729 281.041 M182.969 280.743 C 182.969 281.316,183.030 281.550,183.105 281.264 C 183.179 280.978,183.179 280.509,183.105 280.223 C 183.030 279.937,182.969 280.171,182.969 280.743 M198.453 280.668 C 199.893 280.722,202.168 280.722,203.509 280.667 C 204.850 280.612,203.673 280.567,200.892 280.568 C 198.112 280.568,197.014 280.613,198.453 280.668 M303.940 280.664 L 307.807 280.761 307.807 284.749 C 307.807 286.943,307.907 288.801,308.030 288.877 C 308.152 288.953,308.186 287.121,308.104 284.805 L 307.955 280.595 304.014 280.581 L 300.074 280.568 303.940 280.664 M350.929 280.652 C 356.395 280.865,362.231 280.873,362.231 280.669 C 362.231 280.546,359.186 280.473,355.465 280.506 C 351.743 280.539,349.703 280.605,350.929 280.652 M368.542 280.611 C 368.741 280.810,387.565 280.787,387.765 280.587 C 387.842 280.509,383.512 280.446,378.141 280.446 C 372.771 280.446,368.451 280.520,368.542 280.611 M255.202 282.853 C 255.587 283.097,258.088 283.251,257.819 283.014 C 257.751 282.954,257.041 282.834,256.242 282.748 C 255.354 282.653,254.950 282.693,255.202 282.853 " stroke="none" fill="#fcecdc" fill-rule="evenodd"></path><path id="path3" d="M314.767 245.948 C 314.767 248.483,314.812 249.520,314.868 248.253 C 314.924 246.985,314.924 244.911,314.868 243.643 C 314.812 242.375,314.767 243.413,314.767 245.948 M114.349 245.651 C 114.451 245.814,114.826 245.939,115.185 245.927 C 115.813 245.907,115.815 245.897,115.242 245.651 C 114.423 245.299,114.132 245.299,114.349 245.651 M223.784 267.361 C 223.784 279.383,223.821 284.301,223.866 278.290 C 223.911 272.279,223.911 262.442,223.866 256.431 C 223.821 250.420,223.784 255.338,223.784 267.361 M119.257 247.534 C 119.257 247.582,119.650 247.998,120.131 248.459 C 120.872 249.169,120.982 249.206,120.849 248.699 C 120.728 248.235,119.257 247.159,119.257 247.534 M288.699 247.656 C 289.885 247.712,291.825 247.712,293.011 247.656 C 294.197 247.599,293.227 247.553,290.855 247.553 C 288.483 247.553,287.513 247.599,288.699 247.656 M314.786 271.673 C 314.786 281.323,314.824 285.228,314.870 280.350 C 314.916 275.473,314.916 267.577,314.870 262.804 C 314.824 258.031,314.786 262.022,314.786 271.673 M280.798 258.290 C 280.773 260.416,280.851 262.311,280.971 262.501 C 281.091 262.690,281.153 261.419,281.107 259.675 C 280.977 254.668,280.847 254.085,280.798 258.290 M141.692 263.197 C 141.692 267.859,141.733 269.766,141.784 267.435 C 141.834 265.104,141.834 261.290,141.784 258.959 C 141.733 256.628,141.692 258.535,141.692 263.197 M342.800 268.154 C 342.526 268.428,342.550 275.323,342.825 275.493 C 342.948 275.569,343.048 273.904,343.048 271.793 C 343.048 269.682,343.037 267.955,343.024 267.955 C 343.010 267.955,342.910 268.045,342.800 268.154 M216.342 278.959 C 216.342 284.602,216.382 286.911,216.431 284.089 C 216.480 281.268,216.480 276.651,216.431 273.829 C 216.382 271.007,216.342 273.316,216.342 278.959 M395.539 270.560 C 395.539 270.685,395.810 270.955,396.141 271.162 C 396.698 271.510,396.715 271.494,396.366 270.936 C 395.992 270.337,395.539 270.131,395.539 270.560 M206.194 275.836 C 206.196 276.981,206.249 277.413,206.314 276.796 C 206.378 276.179,206.377 275.243,206.311 274.715 C 206.246 274.187,206.193 274.691,206.194 275.836 M71.133 284.387 C 71.103 286.963,71.178 289.071,71.301 289.071 C 71.424 289.072,71.489 287.633,71.446 285.874 C 71.306 280.160,71.189 279.604,71.133 284.387 M334.897 284.105 C 335.069 284.482,335.482 284.961,335.816 285.169 C 336.307 285.476,336.268 285.346,335.611 284.484 C 334.671 283.252,334.457 283.139,334.897 284.105 " stroke="none" fill="#fcd4c4" fill-rule="evenodd"></path><path id="path4" d="M325.473 245.948 C 325.473 248.483,325.518 249.520,325.574 248.253 C 325.630 246.985,325.630 244.911,325.574 243.643 C 325.518 242.375,325.473 243.413,325.473 245.948 M234.491 267.361 C 234.491 279.383,234.527 284.301,234.572 278.290 C 234.617 272.279,234.617 262.442,234.572 256.431 C 234.527 250.420,234.491 255.338,234.491 267.361 M34.024 250.706 C 34.024 253.405,34.070 254.509,34.125 253.160 C 34.180 251.810,34.180 249.602,34.125 248.253 C 34.070 246.903,34.024 248.007,34.024 250.706 M106.668 247.448 C 106.243 247.782,105.612 248.485,105.265 249.009 L 104.635 249.963 105.394 249.071 C 105.812 248.580,106.525 247.878,106.980 247.511 C 107.435 247.144,107.724 246.842,107.624 246.842 C 107.523 246.841,107.093 247.114,106.668 247.448 M296.258 251.078 C 296.231 253.000,296.309 254.573,296.431 254.573 C 296.554 254.574,296.618 253.469,296.574 252.120 C 296.435 247.871,296.310 247.457,296.258 251.078 M60.669 251.524 C 60.669 251.666,60.863 252.042,61.100 252.360 C 61.517 252.916,61.526 252.913,61.362 252.263 C 61.193 251.592,60.669 251.033,60.669 251.524 M183.314 258.290 C 183.315 260.580,183.362 261.477,183.418 260.284 C 183.475 259.091,183.474 257.218,183.417 256.121 C 183.360 255.024,183.314 256.000,183.314 258.290 M200.000 254.572 C 200.101 254.736,200.385 254.870,200.630 254.870 C 200.875 254.870,200.993 254.736,200.892 254.572 C 200.791 254.409,200.508 254.275,200.262 254.275 C 200.017 254.275,199.899 254.409,200.000 254.572 M281.158 258.290 C 281.159 260.580,281.205 261.477,281.262 260.284 C 281.319 259.091,281.318 257.218,281.261 256.121 C 281.204 255.024,281.158 256.000,281.158 258.290 M308.169 258.043 C 308.133 260.196,308.017 262.204,307.912 262.504 C 307.768 262.910,307.808 262.967,308.069 262.727 C 308.314 262.503,308.391 261.166,308.327 258.266 L 308.235 254.126 308.169 258.043 M325.493 271.673 C 325.493 281.323,325.530 285.228,325.576 280.350 C 325.622 275.473,325.622 267.577,325.576 262.804 C 325.530 258.031,325.493 262.022,325.493 271.673 M346.617 254.572 C 346.516 254.736,346.634 254.870,346.879 254.870 C 347.125 254.870,347.408 254.736,347.509 254.572 C 347.610 254.409,347.492 254.275,347.247 254.275 C 347.002 254.275,346.718 254.409,346.617 254.572 M362.349 258.439 C 362.349 260.810,362.395 261.781,362.451 260.595 C 362.508 259.409,362.508 257.468,362.451 256.283 C 362.395 255.097,362.349 256.067,362.349 258.439 M278.278 256.357 C 278.193 256.684,278.228 256.952,278.357 256.952 C 278.487 256.952,278.662 256.684,278.748 256.357 C 278.833 256.030,278.798 255.762,278.669 255.762 C 278.539 255.762,278.364 256.030,278.278 256.357 M50.260 268.235 C 50.260 275.781,50.364 279.851,50.558 279.851 C 50.751 279.851,50.855 275.842,50.855 268.419 C 50.855 261.118,50.748 256.920,50.558 256.803 C 50.361 256.682,50.260 260.567,50.260 268.235 M370.356 257.621 C 369.432 258.647,369.164 259.272,369.939 258.591 C 370.562 258.043,371.313 256.952,371.066 256.952 C 371.007 256.952,370.688 257.253,370.356 257.621 M173.680 258.439 C 174.030 258.929,174.383 259.331,174.464 259.331 C 174.546 259.331,174.327 258.929,173.978 258.439 C 173.628 257.948,173.275 257.546,173.194 257.546 C 173.112 257.546,173.331 257.948,173.680 258.439 M265.670 260.446 C 265.568 260.732,265.430 261.067,265.364 261.190 C 265.298 261.312,265.370 261.413,265.524 261.413 C 265.678 261.413,265.868 261.078,265.946 260.669 C 266.110 259.814,265.943 259.679,265.670 260.446 M109.723 261.604 C 109.559 262.037,109.354 262.505,109.267 262.645 C 109.181 262.785,109.229 262.900,109.375 262.900 C 109.521 262.900,109.784 262.431,109.959 261.859 C 110.333 260.643,110.160 260.456,109.723 261.604 M254.055 263.048 C 254.231 263.620,254.420 264.043,254.476 263.988 C 254.663 263.801,254.203 262.007,253.968 262.007 C 253.841 262.007,253.880 262.476,254.055 263.048 M296.208 270.186 C 296.208 274.357,296.309 277.770,296.431 277.770 C 296.554 277.770,296.654 274.357,296.654 270.186 C 296.654 266.015,296.554 262.602,296.431 262.602 C 296.309 262.602,296.208 266.015,296.208 270.186 M34.025 267.807 C 34.025 270.587,34.069 271.765,34.124 270.424 C 34.179 269.082,34.180 266.807,34.125 265.368 C 34.070 263.929,34.025 265.026,34.025 267.807 M165.406 264.692 C 165.766 265.178,166.099 265.576,166.146 265.576 C 166.409 265.576,165.504 264.097,165.161 263.965 C 164.921 263.873,165.022 264.172,165.406 264.692 M197.940 264.839 C 197.625 265.078,197.424 265.329,197.494 265.399 C 197.564 265.468,197.937 265.269,198.323 264.956 C 199.136 264.296,198.795 264.192,197.940 264.839 M107.642 266.957 C 107.477 267.390,107.272 267.858,107.185 267.998 C 107.099 268.138,107.147 268.253,107.293 268.253 C 107.439 268.253,107.702 267.784,107.878 267.212 C 108.251 265.996,108.078 265.809,107.642 266.957 M331.965 267.658 C 331.965 268.230,332.026 268.465,332.101 268.178 C 332.176 267.892,332.176 267.424,332.101 267.138 C 332.026 266.851,331.965 267.086,331.965 267.658 M118.790 268.996 C 118.906 269.487,119.129 270.019,119.286 270.179 C 119.442 270.339,119.413 270.004,119.220 269.436 C 118.770 268.104,118.517 267.845,118.790 268.996 M245.103 268.699 C 245.102 268.862,245.281 269.465,245.502 270.037 C 245.722 270.610,245.907 270.877,245.912 270.632 C 245.917 270.387,245.737 269.784,245.513 269.294 C 245.288 268.803,245.103 268.535,245.103 268.699 M331.707 271.673 C 331.708 273.309,331.758 273.940,331.818 273.076 C 331.878 272.211,331.878 270.873,331.817 270.102 C 331.756 269.330,331.706 270.037,331.707 271.673 M393.606 269.834 C 394.097 270.063,394.554 270.202,394.622 270.144 C 394.837 269.959,394.527 269.794,393.605 269.602 L 392.714 269.417 393.606 269.834 M188.030 271.831 C 187.662 271.979,187.361 272.241,187.361 272.414 C 187.361 272.588,187.692 272.510,188.104 272.240 C 188.513 271.972,188.848 271.702,188.848 271.639 C 188.848 271.500,188.860 271.497,188.030 271.831 M200.297 273.645 C 198.502 275.103,198.336 275.270,199.108 274.847 C 199.768 274.485,202.168 272.439,201.933 272.438 C 201.851 272.438,201.115 272.981,200.297 273.645 M131.810 273.829 C 132.361 275.126,132.644 275.288,132.278 274.098 C 132.095 273.500,131.836 273.011,131.704 273.011 C 131.571 273.011,131.619 273.379,131.810 273.829 M185.535 274.175 C 185.149 274.488,184.900 274.805,184.981 274.880 C 185.063 274.955,185.462 274.698,185.867 274.311 C 186.751 273.466,186.524 273.373,185.535 274.175 M260.740 275.125 C 260.358 275.796,260.076 275.993,259.699 275.849 C 259.272 275.687,259.250 275.720,259.575 276.042 C 259.969 276.433,261.413 275.208,261.413 274.482 C 261.413 274.035,261.298 274.144,260.740 275.125 M331.965 275.688 C 331.965 276.260,332.026 276.494,332.101 276.208 C 332.176 275.922,332.176 275.454,332.101 275.167 C 332.026 274.881,331.965 275.115,331.965 275.688 M247.944 276.283 C 248.029 276.610,248.205 276.877,248.334 276.877 C 248.463 276.877,248.499 276.610,248.413 276.283 C 248.328 275.955,248.152 275.688,248.023 275.688 C 247.894 275.688,247.858 275.955,247.944 276.283 M133.879 278.974 C 134.053 279.473,134.253 279.824,134.324 279.753 C 134.533 279.544,134.085 278.067,133.812 278.067 C 133.675 278.067,133.705 278.475,133.879 278.974 M194.044 278.972 C 193.823 279.330,194.666 280.743,195.100 280.743 C 195.260 280.743,195.112 280.465,194.773 280.126 C 194.433 279.786,194.228 279.318,194.317 279.085 C 194.506 278.593,194.324 278.518,194.044 278.972 M123.159 280.750 C 123.609 282.082,123.862 282.340,123.590 281.190 C 123.473 280.699,123.250 280.167,123.094 280.007 C 122.937 279.847,122.966 280.182,123.159 280.750 M308.103 284.698 L 308.251 288.922 308.335 284.931 C 308.381 282.736,308.315 280.835,308.187 280.707 C 308.060 280.579,308.022 282.375,308.103 284.698 M362.348 284.461 C 362.348 286.751,362.395 287.648,362.452 286.455 C 362.508 285.262,362.508 283.389,362.451 282.292 C 362.394 281.195,362.347 282.171,362.348 284.461 M398.600 282.539 C 398.417 283.024,398.375 283.420,398.507 283.420 C 398.751 283.420,399.220 281.946,399.034 281.761 C 398.978 281.704,398.783 282.055,398.600 282.539 M90.025 283.123 C 89.940 283.450,89.976 283.717,90.105 283.717 C 90.234 283.717,90.410 283.450,90.495 283.123 C 90.581 282.796,90.545 282.528,90.416 282.528 C 90.287 282.528,90.111 282.796,90.025 283.123 M254.275 282.825 C 254.520 282.984,254.922 283.114,255.167 283.114 C 255.564 283.114,255.564 283.082,255.167 282.825 C 254.922 282.667,254.520 282.537,254.275 282.537 C 253.879 282.537,253.879 282.569,254.275 282.825 M288.281 285.050 C 288.470 285.456,288.800 285.857,289.015 285.940 C 289.233 286.025,289.126 285.700,288.772 285.202 C 288.000 284.119,287.821 284.064,288.281 285.050 M290.066 286.616 C 290.623 287.257,292.520 288.112,292.186 287.572 C 292.089 287.415,291.871 287.286,291.701 287.286 C 291.532 287.286,290.971 286.993,290.455 286.635 C 289.526 285.991,289.522 285.991,290.066 286.616 M242.435 292.714 C 242.492 297.576,242.602 296.999,242.747 291.077 C 242.790 289.319,242.725 287.880,242.602 287.880 C 242.480 287.881,242.404 290.056,242.435 292.714 M263.494 292.788 C 262.772 293.524,262.248 294.126,262.330 294.126 C 262.411 294.126,263.069 293.524,263.792 292.788 C 264.514 292.052,265.038 291.450,264.957 291.450 C 264.875 291.450,264.217 292.052,263.494 292.788 " stroke="none" fill="#fce4d6" fill-rule="evenodd"></path></g></svg>